<svg width="8" height="14" viewBox="0 0 8 14" fill="none" xmlns="http://www.w3.org/2000/svg">
<path d="M7.61166 6.49274L1.8265 0.707681C1.69269 0.573772 1.51408 0.5 1.32362 0.5C1.13317 0.5 0.954553 0.573772 0.820749 0.707681L0.394712 1.13361C0.117487 1.41116 0.117487 1.86224 0.394712 2.13936L5.25266 6.9973L0.389322 11.8606C0.255518 11.9945 0.181641 12.1731 0.181641 12.3634C0.181641 12.554 0.255518 12.7325 0.389322 12.8665L0.815359 13.2923C0.949269 13.4262 1.12778 13.5 1.31823 13.5C1.50869 13.5 1.6873 13.4262 1.82111 13.2923L7.61166 7.50198C7.74578 7.36764 7.81945 7.18829 7.81903 6.99762C7.81945 6.80622 7.74578 6.62697 7.61166 6.49274Z" fill="white"/>
</svg>
