<svg width="7" height="5" viewBox="0 0 7 5" fill="none" xmlns="http://www.w3.org/2000/svg">
<path d="M3.77314 4.44414L6.88817 1.32905C6.96028 1.257 7 1.16083 7 1.05827C7 0.955721 6.96028 0.859543 6.88817 0.787495L6.65882 0.55809C6.50938 0.408815 6.26649 0.408815 6.11727 0.55809L3.50145 3.17391L0.882733 0.555187C0.810628 0.483139 0.714507 0.443359 0.612012 0.443359C0.509403 0.443359 0.413281 0.483139 0.34112 0.555187L0.111829 0.784592C0.0397239 0.856697 4.54568e-07 0.952818 4.50085e-07 1.05537C4.45603e-07 1.15792 0.0397238 1.2541 0.111829 1.32615L3.22971 4.44414C3.30204 4.51636 3.39861 4.55603 3.50128 4.5558C3.60434 4.55603 3.70086 4.51636 3.77314 4.44414Z" fill="#474747"/>
</svg>
