<svg width="73" height="72" viewBox="0 0 73 72" fill="none" xmlns="http://www.w3.org/2000/svg">
<path d="M28.1429 1.15163C29.4607 0.831629 30.9714 0.479629 31.5179 0.319629C32.0643 0.159629 34.4429 0.0956289 36.8214 0.127629C39.2 0.191629 42.1893 0.447629 43.4107 0.735629C44.6321 0.991629 46.5929 1.53563 47.75 1.91963C48.9071 2.27163 51.0607 3.19963 52.5714 3.93563C54.0821 4.67163 56.3964 6.07963 57.7143 7.07163C59.0321 8.06363 61.2179 9.98363 62.5357 11.3916C63.8536 12.7676 65.6214 14.9116 66.425 16.1596C67.2607 17.3756 68.2893 19.1036 68.7393 19.9996C69.1571 20.8636 69.8964 22.6236 70.3464 23.8396C70.7643 25.0556 71.4393 27.5196 71.825 29.2796C72.275 31.3596 72.5 33.6636 72.5 35.8396C72.5 37.9196 72.275 40.4156 71.8571 42.3996C71.5036 44.1596 70.925 46.4636 70.5714 47.5196C70.1857 48.5756 69.4143 50.4636 68.8036 51.6796C68.1929 52.8956 67.1 54.8476 66.3286 55.9996C65.5893 57.1516 63.725 59.3596 62.2143 60.9276C60.575 62.5916 58.2607 64.5756 56.4286 65.7916C54.7571 66.9116 52.1536 68.3196 50.6429 68.9596C49.1321 69.5996 46.7536 70.3996 45.3393 70.7516C43.925 71.0716 42.1571 71.4876 41.4179 71.6796C40.6464 71.8396 38.4286 71.9996 36.5 71.9996C34.5714 71.9996 32.3536 71.8396 31.6143 71.6796C30.8429 71.4876 29.075 71.0716 27.6607 70.7516C26.2464 70.3996 23.8679 69.5996 22.3571 68.9596C20.8464 68.3196 18.2429 66.9116 16.5714 65.7916C14.7393 64.5756 12.425 62.6236 10.7857 60.9276C9.275 59.3596 7.475 57.2156 6.76786 56.1596C6.06071 55.1036 4.93571 53.1516 4.29286 51.8396C3.61786 50.5276 2.78214 48.5756 2.42857 47.5196C2.075 46.4636 1.49643 44.2236 1.14286 42.5596C0.725 40.6076 0.5 38.3036 0.5 36.1596C0.5 34.0796 0.725 31.5836 1.14286 29.5996C1.49643 27.8396 2.075 25.5356 2.42857 24.4796C2.81429 23.4236 3.58571 21.5356 4.19643 20.3196C4.80714 19.0716 5.9 17.1516 6.67143 15.9996C7.41071 14.8476 9.275 12.6396 10.7857 11.0716C12.4893 9.31163 14.7071 7.45563 16.7321 6.11163C18.5 4.95963 21.2321 3.45563 22.8393 2.81563C24.4464 2.20763 26.825 1.43963 28.1429 1.15163Z" fill="#EE1C26"/>
<path d="M0.564286 32.16L0.532143 16.096L0.5 0L16.475 0.032C25.6679 0.064 32.0643 0.192 31.5179 0.32C30.9714 0.48 29.4607 0.832 28.1429 1.152C26.825 1.44 24.4464 2.208 22.8393 2.816C21.2321 3.456 18.5 4.96 16.7321 6.112C14.7071 7.456 12.4893 9.312 10.7857 11.072C9.275 12.64 7.475 14.784 6.76786 15.84C6.06071 16.896 4.93571 18.848 4.29286 20.16C3.61786 21.472 2.75 23.488 2.36429 24.64C2.01071 25.792 1.43214 27.936 0.564286 32.16Z" fill="white"/>
<path d="M43.25 0.768C41.9321 0.512 40.775 0.224 40.6786 0.16C40.5821 0.064 47.7179 0 72.5 0L72.4679 15.936C72.4357 27.072 72.3393 31.424 72.1143 30.432C71.9536 29.632 71.4393 27.68 70.9893 26.08C70.5714 24.512 69.7036 22.144 69.0929 20.832C68.45 19.488 67.2929 17.408 66.4571 16.192C65.6214 14.944 63.8536 12.8 62.5357 11.392C61.2179 10.016 59.0321 8.064 57.7143 7.072C56.3964 6.08 54.0821 4.672 52.5714 3.936C51.0607 3.2 48.9071 2.304 47.75 1.92C46.5929 1.536 44.5679 1.024 43.25 0.768Z" fill="white"/>
<path d="M70.9893 46.08C71.4393 44.608 71.8893 42.624 72.0179 41.696C72.1464 40.768 72.3071 40 72.3714 40C72.4357 40 72.5 47.2 72.5 72L56.525 71.968C47.3321 71.968 40.9357 71.84 41.4821 71.68C42.0286 71.552 43.5393 71.168 44.8571 70.88C46.175 70.592 48.5857 69.824 50.1607 69.184C51.7679 68.544 54.5 67.072 56.2679 65.888C58.2929 64.576 60.5107 62.72 62.2143 60.928C63.725 59.36 65.5893 57.152 66.3286 56C67.1 54.88 68.2571 52.768 68.9643 51.36C69.6393 49.952 70.5714 47.584 70.9893 46.08Z" fill="white"/>
<path d="M0.5 72L0.532143 56.096C0.564286 44.96 0.660714 40.608 0.885714 41.6C1.04643 42.4 1.56071 44.352 2.01071 45.92C2.42857 47.52 3.36071 49.952 4.03571 51.36C4.74286 52.768 5.9 54.88 6.67143 56C7.41071 57.152 9.275 59.36 10.7857 60.928C12.4893 62.72 14.7071 64.576 16.7321 65.888C18.5 67.072 21.2643 68.544 22.8393 69.184C24.4464 69.824 26.825 70.592 28.1429 70.88C29.4604 71.1679 31.0029 71.5518 31.5175 71.6799L31.5179 71.68C32.0643 71.84 25.6679 71.968 0.5 72Z" fill="white"/>
<path d="M27.9821 4.192C29.3964 3.84 31.7107 3.392 33.125 3.264C34.5393 3.104 35.8893 2.976 36.0821 2.944C36.3071 2.912 37.8179 3.04 39.4571 3.2C41.0964 3.36 43.6036 3.808 45.0179 4.192C46.4321 4.576 48.7464 5.408 50.1607 6.048C51.575 6.72 53.6643 7.872 54.8214 8.672C55.9786 9.44 58.0036 11.104 59.3214 12.352C60.6393 13.632 62.5357 15.776 63.5 17.184C64.4643 18.56 65.7821 20.832 66.425 22.24C67.1 23.648 67.9357 25.888 68.2893 27.2C68.6429 28.544 69.0929 30.848 69.3179 32.32C69.5107 33.952 69.575 36.288 69.4464 38.08C69.3179 39.776 68.9 42.432 68.5143 44C68.0964 45.6 67.1964 48.128 66.4893 49.6C65.8143 51.104 64.6571 53.184 63.9821 54.24C63.275 55.296 61.6036 57.312 60.2536 58.72C58.9036 60.128 56.6536 62.08 55.2714 63.04C53.8893 64 51.575 65.312 50.1607 65.984C48.7464 66.624 46.4321 67.456 45.0179 67.84C43.6036 68.224 41.0643 68.64 39.3929 68.8C37.5286 68.992 35.2143 68.96 33.4464 68.8C31.8714 68.64 29.3964 68.192 27.9821 67.84C26.5679 67.456 24.2536 66.624 22.8393 65.984C21.425 65.312 19.1429 64 17.7286 63.04C16.3464 62.08 14.0964 60.128 12.7464 58.72C11.3964 57.312 9.725 55.296 9.01786 54.24C8.34286 53.184 7.18571 51.104 6.51071 49.6C5.80357 48.128 4.87143 45.536 4.42143 43.84C3.74643 41.28 3.61786 40.096 3.61786 36C3.61786 31.936 3.74643 30.752 4.42143 28.16C4.87143 26.496 5.80357 23.904 6.51071 22.4C7.18571 20.928 8.34286 18.816 9.01786 17.76C9.725 16.704 11.3964 14.688 12.7464 13.28C14.0964 11.872 16.3464 9.952 17.7286 8.992C19.1429 8.032 21.425 6.72 22.8393 6.048C24.2536 5.408 26.5679 4.576 27.9821 4.192Z" fill="white"/>
<path d="M13.7384 21.184C14.1241 20.608 14.8955 19.936 15.4098 19.68C16.2455 19.296 20.0384 19.232 37.042 19.2C54.7848 19.2 57.8384 19.264 58.6741 19.68C59.2205 19.936 59.9277 20.544 60.2812 21.024C60.9241 21.888 60.9563 22.336 60.9563 36C60.9563 49.6639 60.9241 50.112 60.2812 50.976C59.9277 51.456 59.2205 52.0639 58.6741 52.32C57.8384 52.736 54.7848 52.7999 37.1384 52.7999C19.5562 52.7999 16.4062 52.736 15.442 52.32C14.8312 52.0639 14.0277 51.36 13.6741 50.816C13.0634 49.792 13.0312 49.184 13.0312 36C13.0312 22.368 13.0312 22.24 13.7384 21.184Z" fill="#EE1C26"/>
<path d="M26.6089 30.1121C21.9804 25.8561 18.2839 22.3361 18.4125 22.2401C18.5089 22.1441 26.8982 22.0801 37.0554 22.0801C47.1804 22.0801 55.5375 22.1761 55.6018 22.3041C55.6661 22.4641 51.8732 26.0801 47.1804 30.3681C42.4554 34.6561 38.2768 38.3361 37.8589 38.5281C37.2804 38.8161 36.9268 38.7521 36.0911 38.3361C35.5446 38.0481 31.2696 34.3681 26.6089 30.1121Z" fill="white"/>
<path d="M45.8946 36.0641C45.9589 35.9041 48.6589 33.3761 51.9375 30.4001C55.2161 27.4241 57.9161 24.9921 57.9804 24.9921C58.0125 24.9601 58.0446 30.0801 58.0446 47.6801L51.9375 42.0161C48.5625 38.8801 45.8625 36.1921 45.8946 36.0641Z" fill="white"/>
<path d="M16.1946 47.1681C16.0339 47.1041 15.9375 42.1441 15.9375 36.1601C15.9375 30.1761 16.0339 25.2801 16.1946 25.2801C16.3232 25.2801 19.1196 27.7121 28.4732 36.1601L22.4625 41.7281C19.1196 44.8001 16.3232 47.2641 16.1946 47.1681Z" fill="white"/>
<path d="M18.4446 49.6321C18.4125 49.4721 21.1125 46.9121 24.4232 43.9041L30.4661 38.4321L31.3339 39.0081C31.7839 39.3281 32.3946 39.8401 32.6518 40.1601C32.9089 40.4801 33.4875 40.8961 33.9375 41.1201C34.3875 41.3441 35.3196 41.6321 36.0268 41.7601C36.7339 41.8561 37.9232 41.8241 38.6946 41.6321C39.4339 41.4401 40.8482 40.6401 43.6768 38.4001L49.7196 44.0001C53.0625 47.0721 55.6982 49.6641 55.5696 49.7601C55.4732 49.8561 47.0839 49.9201 36.9268 49.9201C26.6732 49.9201 18.4768 49.7921 18.4446 49.6321Z" fill="white"/>
</svg>
