<?xml version="1.0"?>
<svg width="51" height="59" xmlns="http://www.w3.org/2000/svg" xmlns:svg="http://www.w3.org/2000/svg">
 <g class="layer">
  <title>Layer 1</title>
  <path d="m16.23,1.5l0.04,1.47l-0.03,0l-0.05,-1.47c-1.2,0.04 -2,0.15 -2.56,0.28l-0.04,0.01l-0.03,0.01c-0.16,0.05 -0.43,0.12 -0.76,0.21c-0.09,0.02 -0.19,0.05 -0.29,0.08c-0.46,0.12 -0.98,0.27 -1.45,0.4c-1.04,0.29 -2.54,0.91 -3.41,1.4c-0.83,0.47 -1.95,1.28 -2.54,1.85l-0.01,0.02l-0.01,0.01c-0.54,0.55 -1.28,1.52 -1.67,2.21c-0.43,0.75 -0.88,2.01 -1.09,2.9c-0.3,1.29 -0.33,2.52 -0.22,4.77c0.07,1.68 0.31,4.27 0.49,5.8c0.19,1.56 0.65,4.17 1.03,5.83c0.37,1.66 1.02,4.01 1.49,5.26c0.45,1.24 1.25,3.03 1.78,4.04c0.56,1.05 1.81,2.95 2.82,4.27c0.97,1.3 2.4,3.1 3.17,4.02l1.15,-0.97l-1.15,0.97c0.78,0.92 2.3,2.59 3.39,3.71c1.12,1.16 2.82,2.7 3.8,3.49l0.01,0.01l0.01,0.01c0.96,0.75 2.39,1.76 3.22,2.25c0.8,0.5 2.04,1.15 2.78,1.49c0.74,0.33 2.02,0.81 2.88,1.09c1.39,0.45 2.31,0.56 4.27,0.56c0.67,0 1.34,-0.02 1.87,-0.06c0.27,-0.01 0.52,-0.04 0.73,-0.06c0.1,-0.02 0.21,-0.04 0.32,-0.06c0.08,-0.02 0.27,-0.06 0.48,-0.16l0.01,-0.01c0.01,0 0.04,-0.01 0.12,-0.04c0.11,-0.04 0.25,-0.09 0.42,-0.14c0.34,-0.11 0.76,-0.24 1.17,-0.35c0.98,-0.26 2.88,-0.96 4.26,-1.56c0.68,-0.29 1.31,-0.57 1.78,-0.8c0.24,-0.11 0.46,-0.23 0.63,-0.33c0.08,-0.05 0.19,-0.12 0.3,-0.2c0.05,-0.04 0.15,-0.12 0.25,-0.23c0,0 0,-0.01 0,-0.01c0.04,-0.04 0.19,-0.2 0.29,-0.48c0.29,0.03 0.61,-0.02 0.92,-0.18c0.33,-0.18 0.53,-0.42 0.63,-0.58c0.2,-0.28 0.33,-0.62 0.42,-0.88c0.11,-0.28 0.23,-0.64 0.38,-1.08l0.03,-0.08l0.66,-1.95l0.23,-0.69l-0.39,-0.61c-0.47,-0.72 -1.3,-1.48 -2.16,-2.19c-0.9,-0.74 -1.99,-1.53 -3.09,-2.3c-1.11,-0.77 -2.21,-1.51 -3.09,-2.09c-0.83,-0.54 -1.58,-1.01 -1.91,-1.17c-0.52,-0.24 -1.15,-0.46 -1.43,-0.55l-0.07,-0.02l-0.07,-0.02c-0.38,-0.08 -0.75,-0.02 -0.91,0.01c-0.22,0.04 -0.47,0.1 -0.7,0.17c-0.49,0.15 -1.07,0.37 -1.69,0.64l-0.01,0l-0.01,0.01c-0.54,0.24 -1.04,0.47 -1.41,0.66c-0.18,0.09 -0.35,0.18 -0.49,0.27c-0.06,0.04 -0.17,0.1 -0.27,0.18c-0.04,0.04 -0.15,0.13 -0.26,0.27c-0.06,0.07 -0.16,0.21 -0.24,0.42c-0.03,0.1 -0.07,0.24 -0.09,0.42c-0.08,0.01 -0.16,0.02 -0.24,0.03c-0.37,0.05 -0.8,0.15 -1.23,0.28l0,0l-0.01,0c-0.31,0.1 -0.65,0.19 -0.94,0.26c-0.14,0.03 -0.26,0.05 -0.35,0.07c-0.04,0 -0.07,0.01 -0.09,0.01c-0.01,0 -0.03,0 -0.05,-0.01c-0.07,-0.01 -0.16,-0.02 -0.26,-0.04c-0.21,-0.04 -0.44,-0.1 -0.64,-0.15c-0.07,-0.02 -0.26,-0.1 -0.5,-0.26c-0.25,-0.15 -0.46,-0.31 -0.58,-0.43l-0.02,-0.01l-0.01,-0.02c-0.33,-0.31 -1.18,-1.4 -1.89,-2.46c-0.67,-1.05 -2.11,-3.35 -3.17,-5.12c-1.04,-1.78 -2.81,-4.83 -3.92,-6.78c-0.99,-1.75 -1.43,-2.54 -1.64,-3.07c-0.15,-0.38 -0.17,-0.54 -0.17,-1.16c0,-0.93 0.09,-1.18 0.3,-1.54c0.12,-0.21 0.6,-0.71 1.06,-1.01l1.03,-0.64l0.44,-0.27c0.15,0.07 0.3,0.11 0.43,0.14c0.27,0.05 0.53,0.05 0.68,0.05l0,0c0.41,0 0.83,-0.1 1.17,-0.2c0.35,-0.11 0.73,-0.26 1.06,-0.46c0.62,-0.33 1.39,-0.96 1.84,-1.43l0.02,-0.02l0.01,-0.01l0.64,-0.71l0.4,-0.45l-0.02,-0.6l-0.01,-0.43c-0.15,-4.99 -0.23,-7.62 -0.34,-9.05c-0.05,-0.71 -0.11,-1.26 -0.24,-1.69c-0.08,-0.24 -0.18,-0.48 -0.34,-0.7c-0.15,-0.22 -0.32,-0.36 -0.39,-0.43l-0.02,-0.02l-0.03,-0.02c-0.4,-0.33 -1.22,-0.84 -1.95,-1.16c-0.37,-0.18 -0.79,-0.33 -1.18,-0.44c-0.36,-0.1 -0.82,-0.2 -1.23,-0.2l-0.71,0l-1.54,0z" fill="none" id="svg_1" stroke="#EE1C26" stroke-width="3"/>
  <line fill="none" id="svg_2" stroke="#EE1C26" stroke-width="3" transform="matrix(1 0 0 1 0 0)" x1="16.5" x2="16.69" y1="4.81" y2="10.37"/>
  <line fill="none" id="svg_5" stroke="#EE1C26" stroke-width="3" transform="rotate(3.04838 16.5902 11.6968)" x1="15.89" x2="17.29" y1="4.37" y2="19.03"/>
  <line fill="none" id="svg_6" stroke="#EE1C26" stroke-width="3" x1="31.37" x2="46.18" y1="42.22" y2="52.72"/>
 </g>
</svg>