<svg width="34" height="26" viewBox="0 0 34 26" fill="none" xmlns="http://www.w3.org/2000/svg">
<path d="M16.9988 25.3511C16.9959 25.3511 16.9928 25.3511 16.9897 25.3511C15.9638 25.3441 6.89414 25.2613 4.32452 24.5664C2.52869 24.0837 1.11107 22.6676 0.627034 20.8715C-0.0453303 18.3473 -0.00252933 13.4874 0.00213987 13.0994C-0.00226992 12.7131 -0.0455897 7.81306 0.624959 5.26809C0.625737 5.26576 0.626256 5.26316 0.627034 5.26083C1.10563 3.48523 2.55515 2.02533 4.32011 1.54129C4.32452 1.53999 4.32919 1.53896 4.3336 1.53766C6.87416 0.869965 15.9617 0.788254 16.9897 0.78125H17.0081C18.0367 0.788254 27.1304 0.871002 29.6764 1.56697C31.4676 2.04842 32.8842 3.46267 33.3695 5.25642C34.0671 7.8032 34.0025 12.7139 33.9955 13.1284C34.0004 13.5367 34.0411 18.353 33.3726 20.8899C33.3721 20.8925 33.3713 20.8949 33.3708 20.8972C32.8865 22.6933 31.4692 24.1093 29.6713 24.5926C29.6689 24.5934 29.6663 24.5939 29.664 24.5947C27.1237 25.2621 18.0359 25.3438 17.0081 25.3511C17.005 25.3511 17.0019 25.3511 16.9988 25.3511ZM3.1925 5.94927C2.6021 8.19568 2.65788 13.0332 2.65839 13.082V13.117C2.64076 14.4586 2.70275 18.3439 3.19276 20.1841C3.43037 21.0653 4.12945 21.7633 5.01608 22.0017C6.91203 22.5145 14.299 22.6759 16.9988 22.6948C19.7056 22.6759 27.1035 22.519 28.9854 22.0266C29.8692 21.7875 30.5659 21.0917 30.8051 20.2095C31.2956 18.3424 31.3571 14.476 31.3392 13.143C31.3392 13.1289 31.3392 13.1149 31.3395 13.1009C31.3638 11.7432 31.3159 7.81254 30.8074 5.95757C30.8069 5.95576 30.8064 5.95394 30.8061 5.95213C30.5675 5.06705 29.8681 4.36901 28.9815 4.13062C27.104 3.61727 19.7051 3.45644 16.9988 3.4375C14.2938 3.45644 6.90321 3.61312 5.01556 4.10494C4.14579 4.34618 3.43089 5.06913 3.1925 5.94927ZM13.6134 18.4448V7.68725L22.9103 13.0662L13.6134 18.4448Z" fill="#3C3C3C"/>
</svg>
