<svg width="77" height="92" viewBox="0 0 77 92" fill="none" xmlns="http://www.w3.org/2000/svg">
<path d="M19.1144 22.8904H47.4211C48.9431 22.8904 50.1773 21.6562 50.1773 20.1342C50.1773 18.6121 48.9431 17.3779 47.4211 17.3779H19.1144C17.5923 17.3779 16.3582 18.6121 16.3582 20.1342C16.3582 21.6562 17.5923 22.8904 19.1144 22.8904Z" fill="#EE1C25"/>
<path d="M19.1146 37.8743H31.8393C33.3614 37.8743 34.5956 36.6401 34.5956 35.1181C34.5956 33.596 33.3614 32.3618 31.8393 32.3618H19.1146C17.5926 32.3618 16.3584 33.596 16.3584 35.1181C16.3584 36.6401 17.5926 37.8743 19.1146 37.8743Z" fill="#EE1C25"/>
<path d="M63.6431 0.368774H13.3569C5.99464 0.368774 0.00439453 6.35903 0.00439453 13.7213V69.6119C0.00439453 76.9742 5.99464 82.9644 13.3569 82.9644H27.3219C28.844 82.9644 30.0781 81.7302 30.0781 80.2082C30.0781 78.6861 28.844 77.4519 27.3219 77.4519H13.3569C9.03571 77.4519 5.51689 73.9361 5.51689 69.6119V13.7213C5.51689 9.39703 9.03264 5.88128 13.3569 5.88128H63.6431C67.9643 5.88128 71.4831 9.39703 71.4831 13.7213V69.6119C71.4831 73.0021 69.321 75.988 66.0962 77.0385C64.6476 77.5101 63.8606 79.0658 64.3322 80.5144C64.8038 81.963 66.3596 82.747 67.8081 82.2784C73.3053 80.4868 76.9987 75.3939 76.9987 69.6119V13.7213C76.9956 6.35903 71.0054 0.368774 63.6431 0.368774Z" fill="#EE1C25"/>
<path d="M47.1393 48.0734C39.0237 48.0734 32.4148 54.6761 32.4148 62.7948C32.4148 66.8894 34.1022 70.5919 36.8095 73.2624V88.8751C36.8095 89.8887 37.3669 90.8197 38.258 91.3006C39.1523 91.7844 40.2364 91.7354 41.0817 91.1781L47.1424 87.2029L53.2031 91.1781C53.6594 91.4782 54.1861 91.6282 54.7159 91.6282C55.163 91.6282 55.6163 91.518 56.0267 91.2975C56.9179 90.8167 57.4752 89.8857 57.4752 88.872V73.2563C60.1794 70.5858 61.8669 66.8832 61.8669 62.7887C61.8607 54.6761 55.258 48.0734 47.1393 48.0734ZM47.1393 53.5859C52.2139 53.5859 56.3452 57.7172 56.3452 62.7948C56.3452 67.8724 52.2139 72.0037 47.1393 72.0037C42.0617 72.0037 37.9304 67.8724 37.9304 62.7948C37.9304 57.7172 42.0617 53.5859 47.1393 53.5859ZM51.9566 83.7699L48.6552 81.6016C47.7334 81.0014 46.5482 81.0014 45.6295 81.6016L42.3281 83.7699V76.6404C43.844 77.1702 45.4488 77.5162 47.1424 77.5162C48.839 77.5162 50.4407 77.1702 51.9566 76.6404V83.7699Z" fill="#EE1C25"/>
</svg>
