<svg width="90" height="90" viewBox="0 0 90 90" fill="none" xmlns="http://www.w3.org/2000/svg">
<path d="M45 24.6094C33.7565 24.6094 24.6094 33.7567 24.6094 45C24.6094 56.2433 33.7565 65.3906 45 65.3906C47.1001 65.3906 49.1722 65.0719 51.1587 64.4432C53.0098 63.8573 54.0353 61.8817 53.4495 60.0305C52.8637 58.1794 50.8876 57.1537 49.0368 57.7396C47.7374 58.1509 46.3794 58.3594 45 58.3594C37.6337 58.3594 31.6406 52.3665 31.6406 45C31.6406 37.6335 37.6337 31.6406 45 31.6406C52.3663 31.6406 58.3594 37.6335 58.3594 45C58.3594 46.2802 58.1794 47.5451 57.8241 48.7593C57.279 50.6229 58.3479 52.5753 60.2116 53.1204C62.0756 53.6655 64.0276 52.5966 64.5729 50.7329C65.1155 48.8774 65.3906 46.9484 65.3906 45C65.3906 33.7567 56.2435 24.6094 45 24.6094Z" fill="#EE1C25"/>
<path d="M77.7626 31.9998H76.03C75.5741 31.9998 75.1609 31.7127 74.9819 31.2795L74.9513 31.2052C74.766 30.7589 74.8546 30.2622 75.1769 29.9398L76.4023 28.7145C80.427 24.6898 80.427 18.1411 76.4023 14.1163L73.9693 11.6833C72.0196 9.73358 69.4272 8.65987 66.6701 8.65987C63.9126 8.65987 61.3205 9.73358 59.3709 11.6833L58.1458 12.9084C57.8232 13.231 57.326 13.3194 56.8818 13.1348L56.817 13.108C56.3726 12.9244 56.0856 12.5114 56.0856 12.0556V10.3225C56.0856 4.63066 51.4549 0 45.7631 0H42.3223C36.6305 0 31.9998 4.63066 31.9998 10.3225V12.0556C31.9998 12.5114 31.7129 12.9244 31.2723 13.1063L31.205 13.1341C30.7592 13.3196 30.2621 13.231 29.9398 12.9086L28.7145 11.6833C26.765 9.73358 24.1727 8.65987 21.4153 8.65987C18.658 8.65987 16.0659 9.73358 14.1162 11.6833L11.6831 14.116C7.65841 18.1409 7.65842 24.6895 11.6833 28.7144L12.9084 29.9395C13.2308 30.2621 13.3193 30.7587 13.1288 31.2177L13.108 31.268C12.9246 31.7124 12.5112 31.9995 12.0554 31.9995H10.3225C4.63066 31.9995 0 36.6302 0 42.322V45.7628C0 51.4546 4.63066 56.0853 10.3225 56.0853H12.0553C12.5112 56.0853 12.9243 56.3724 13.1033 56.8056L13.134 56.8799C13.3193 57.3262 13.2307 57.8229 12.9083 58.1453L11.6831 59.3706C9.7334 61.3203 8.65969 63.9125 8.65969 66.6698C8.65969 69.4269 9.7334 72.019 11.683 73.9688L14.116 76.4018C16.0657 78.3515 18.658 79.4252 21.4152 79.4252C24.1727 79.4252 26.7648 78.3515 28.7144 76.4018L29.9395 75.1767C30.2617 74.8541 30.7591 74.7657 31.2035 74.9503L31.2683 74.9771C31.7127 75.1607 31.9997 75.5738 31.9997 76.0295V77.7626C31.9997 83.4544 36.6303 88.0851 42.3221 88.0851H45.763C51.4548 88.0851 56.0854 83.4544 56.0854 77.7626V76.0295C56.0854 75.5738 56.3724 75.1607 56.813 74.9788L56.8803 74.951C57.3264 74.7658 57.8232 74.8543 58.1455 75.1765L59.3707 76.4018C61.3203 78.3515 63.9126 79.4252 66.6699 79.4252C69.4272 79.4252 72.0194 78.3515 73.9691 76.4018L76.4021 73.9688C78.3517 72.0192 79.4254 69.4269 79.4254 66.6698C79.4254 63.9125 78.3517 61.3203 76.4021 59.3707L75.1769 58.1455C74.8543 57.8231 74.7658 57.3264 74.9511 56.8801L74.9771 56.8171C75.1607 56.3727 75.5739 56.0856 76.0297 56.0856H77.7626C83.4544 56.0856 88.0851 51.4549 88.0851 45.7631V42.3223C88.0851 36.6305 83.4544 31.9998 77.7626 31.9998ZM81.2035 45.763C81.2035 47.6602 79.6599 49.2038 77.7626 49.2038H76.0297C72.7772 49.2038 69.8675 51.1609 68.6166 54.1901L68.5942 54.2441C67.3387 57.2718 68.012 60.7128 70.3105 63.0115L71.5359 64.2368C72.1857 64.8866 72.5436 65.7507 72.5436 66.6698C72.5436 67.5888 72.1857 68.4528 71.5358 69.1028L69.1029 71.5358C68.4528 72.1856 67.5888 72.5436 66.6698 72.5436C65.7505 72.5436 64.8866 72.1857 64.2368 71.5358L63.0113 70.3103C60.7115 68.011 57.2684 67.3381 54.2387 68.5965L54.1902 68.6166C51.1611 69.8673 49.2038 72.777 49.2038 76.0295V77.7626C49.2038 79.6599 47.6602 81.2035 45.763 81.2035H42.3221C40.4249 81.2035 38.8813 79.6599 38.8813 77.7626V76.0295C38.8813 72.777 36.924 69.8673 33.8913 68.615L33.8448 68.5958C32.8315 68.1748 31.7722 67.9702 30.7245 67.9702C28.6409 67.9702 26.6039 68.7804 25.0736 70.3105L23.8484 71.5359C23.1984 72.1857 22.3346 72.5436 21.4153 72.5436C20.4963 72.5436 19.6321 72.1856 18.9823 71.5358L16.5493 69.1028C15.8994 68.4528 15.5415 67.5888 15.5415 66.6698C15.5415 65.7507 15.8994 64.8866 16.5493 64.2368L17.7746 63.0115C20.0733 60.7128 20.7466 57.2718 19.4909 54.2441L19.4685 54.1901C18.2174 51.1609 15.3077 49.2038 12.0554 49.2038H10.3225C8.4252 49.2038 6.88165 47.6602 6.88165 45.763V42.3221C6.88165 40.4249 8.4252 38.8813 10.3225 38.8813H12.0554C15.3079 38.8813 18.2176 36.9242 19.4732 33.884L19.4892 33.845C20.7471 30.8164 20.0741 27.3735 17.7744 25.0736L16.5493 23.8485C15.2076 22.5068 15.2076 20.3239 16.5493 18.9823L18.9822 16.5493C19.6323 15.8995 20.4963 15.5415 21.4153 15.5415C22.3346 15.5415 23.1986 15.8994 23.8484 16.5493L25.0738 17.7748C27.3738 20.0743 30.8169 20.7473 33.8464 19.4887L33.8949 19.4685C36.924 18.2178 38.8813 15.3081 38.8813 12.0556V10.3225C38.8813 8.4252 40.4249 6.88165 42.3221 6.88165H45.763C47.6602 6.88165 49.2038 8.4252 49.2038 10.3225V12.0556C49.2038 15.3081 51.1611 18.2178 54.1938 19.4699L54.2403 19.4892C57.2684 20.7468 60.7115 20.0739 63.0115 17.7744L64.2368 16.549C64.8867 15.8992 65.7505 15.5413 66.6698 15.5413C67.5888 15.5413 68.453 15.8994 69.1028 16.5492L71.5358 18.9822C72.8775 20.3237 72.8775 22.5066 71.5359 23.8482L70.3105 25.0736C68.011 27.3735 67.338 30.8162 68.5908 33.8322L68.6166 33.895C69.8677 36.9242 72.7774 38.8813 76.0297 38.8813H77.7626C79.6599 38.8813 81.2035 40.4249 81.2035 42.3221V45.763Z" fill="#EE1C25"/>
</svg>
