<svg width="83" height="82" viewBox="0 0 83 82" fill="none" xmlns="http://www.w3.org/2000/svg">
<path d="M79 37.875H57.125C50.2687 37.875 44.625 43.5187 44.625 50.375C44.625 57.2313 50.2687 62.875 57.125 62.875H69.625V72.25C69.625 73.9656 68.2156 75.375 66.5 75.375H16.5C11.3562 75.375 7.125 71.1438 7.125 66V19.125C7.125 13.9812 11.3562 9.75 16.5 9.75H22.75C24.4656 9.75 25.875 8.34062 25.875 6.625C25.875 4.90937 24.4656 3.5 22.75 3.5H16.5C7.92813 3.5 0.875 10.5531 0.875 19.125V66C0.875 74.5719 7.92813 81.625 16.5 81.625H66.5C71.6438 81.625 75.875 77.3938 75.875 72.25V62.875H79C80.7156 62.875 82.125 61.4656 82.125 59.75V41C82.125 39.2844 80.7156 37.875 79 37.875ZM77 57.5H56.5C53.0719 57.5 49.5 53.8031 49.5 50.375C49.5 46.9469 53.6969 43 57.125 43H77V57.5Z" fill="#EE1C25"/>
<path d="M15.3751 16.2187C11.8876 17.7406 13.0407 22.25 16.5001 22.25H66.5001C68.2157 22.25 69.6251 23.6593 69.6251 25.375V28.5C69.6251 30.2156 71.0344 31.625 72.7501 31.625C74.4657 31.625 75.8751 30.2156 75.8751 28.5V25.375C75.8719 22.8906 74.8844 20.5062 73.1251 18.75C71.3688 16.9906 68.9844 16.0031 66.5001 16H65.5001L60.0313 2.34372C59.3969 0.765592 57.5844 -0.0219082 56 0.593717L15.3751 16.2187ZM61.498 17.4999H25.998L56 5.99988L61.498 17.4999Z" fill="#EE1C25"/>
</svg>
