<svg width="41" height="47" viewBox="0 0 41 47" fill="none" xmlns="http://www.w3.org/2000/svg">
<path d="M15.7361 0.79878C16.4196 0.575855 17.4648 0.297199 18.0477 0.185736H18.0276C18.6105 0.0928509 20.0578 0.0556967 21.2638 0.0928509C22.8517 0.167159 23.7964 0.297199 24.8618 0.650163C25.6658 0.910242 26.8316 1.39325 27.4346 1.72763C28.0377 2.04344 29.2638 2.99087 30.1683 3.80827C31.3743 4.92289 31.9774 5.66597 32.6005 6.7806C33.0427 7.59799 33.5653 8.93554 33.7663 9.75293C34.0477 10.9233 34.108 11.7221 34.0075 13.4683C33.9472 15.0845 33.7864 16.0134 33.4849 16.8122C33.2437 17.4253 32.7613 18.3913 32.4196 18.9486C32.0578 19.5059 30.2085 22.4411 28.2789 25.4506C26.3492 28.46 23.8165 32.3612 22.6507 34.0889C20.6809 37.0427 20.5201 37.2284 20.2588 36.8755C20.098 36.6711 18.912 34.8691 17.6055 32.8814C16.299 30.8936 13.8065 27.0482 12.0578 24.3359C10.309 21.6237 8.58037 18.8743 8.21856 18.2055C7.85675 17.5367 7.41454 16.4593 7.25374 15.7905C7.07283 15.1217 6.93213 13.7098 6.93213 12.6324C6.93213 11.4992 7.05273 10.2174 7.23363 9.56716C7.39444 8.95412 7.89695 7.78376 8.31906 6.96637C8.82157 6.01894 9.58539 4.9972 10.3894 4.17981C11.113 3.4553 12.3191 2.50787 13.0829 2.06202C13.8467 1.61617 15.0326 1.04028 15.7361 0.79878Z" fill="#EE1C25"/>
<path d="M3.39444 43.6004C4.84167 41.9284 7.13313 39.3462 8.45976 37.8415L10.8718 35.1106H15.9975V36.0395H13.6859H13.6858C11.4145 36.0395 11.3743 36.0395 10.9321 36.5411C10.6708 36.8197 8.78137 38.9561 6.71102 41.2782C4.62057 43.6189 2.89193 45.6438 2.83162 45.7925C2.75122 46.034 4.80147 46.0711 20.5201 46.0711C32.902 46.0711 38.2889 46.0154 38.2688 45.8668C38.2286 45.7739 36.3191 43.5075 29.7663 36.0581L25.0427 36.0395V35.1106H30.1683L32.5804 37.8415C33.907 39.3462 36.1985 41.9284 37.6658 43.6004C39.113 45.2723 40.3191 46.7027 40.3191 46.8142C40.3191 46.9442 33.6256 47 20.6206 47C7.69594 47 0.881876 46.9442 0.821574 46.8142C0.761273 46.7027 1.9271 45.2723 3.39444 43.6004Z" fill="#EE1C25"/>
<ellipse cx="20.4006" cy="12.6325" rx="8.0402" ry="7.43083" fill="white"/>
</svg>
