<svg width="47" height="47" viewBox="0 0 47 47" fill="none" xmlns="http://www.w3.org/2000/svg">
<path fill-rule="evenodd" clip-rule="evenodd" d="M24.1883 0.00922654C24.7481 0.0369062 25.6475 0.110718 26.2073 0.193757C26.7671 0.26757 27.694 0.452101 28.2722 0.599725C28.8504 0.756576 29.8048 1.06105 30.383 1.29172C30.9612 1.52238 31.7871 1.90067 32.2185 2.13133C32.6498 2.36199 33.3473 2.77719 33.7786 3.05399C34.2099 3.33078 34.9349 3.86592 35.3846 4.23498C35.8343 4.60404 36.6236 5.33294 37.1283 5.85885C37.6239 6.38477 38.3122 7.18748 38.6426 7.6488C38.9821 8.11013 39.441 8.79289 39.6704 9.17118C39.8999 9.54947 40.2302 10.1584 40.4046 10.509C40.5882 10.8596 40.8727 11.5239 41.0562 11.9853C41.2397 12.4374 41.4875 13.194 41.6252 13.6461C41.7537 14.0982 41.9464 14.8916 42.0474 15.3991C42.1391 15.9066 42.2768 16.903 42.3319 17.6135C42.4144 18.5915 42.4053 19.2466 42.3319 20.2892C42.2676 21.055 42.1208 22.1714 41.9923 22.7803C41.873 23.3893 41.6252 24.3396 41.4417 24.9024C41.2581 25.4653 40.8543 26.4617 40.5331 27.1168C40.2211 27.7719 39.8081 28.5654 39.2758 29.4234L39.8815 30.3C40.2119 30.7797 41.8546 33.1879 43.5433 35.6514C45.2227 38.1148 46.5534 40.1355 46.4984 40.1447C46.4433 40.1631 44.5803 39.8218 42.3594 39.3973C40.1385 38.9821 38.2938 38.6592 38.2571 38.6869C38.2204 38.7146 37.8533 40.5968 37.4312 42.8757C37.009 45.1455 36.6511 47 36.6236 47C36.596 47 35.0267 44.7303 33.1362 41.9623C30.1627 37.6074 29.6672 36.9338 29.5111 36.98C29.4102 37.0169 28.8779 37.1645 28.3181 37.3121C27.7583 37.4598 26.914 37.6443 26.4367 37.7273C25.9595 37.8011 24.9684 37.8934 24.2342 37.9303C23.4449 37.958 22.4538 37.9395 21.8022 37.875C21.1965 37.8196 20.2879 37.6812 19.7832 37.5797C19.2784 37.4782 18.5351 37.2937 18.1313 37.1737C17.7275 37.0446 17.3696 36.9431 17.3328 36.9431C17.287 36.9431 15.7176 39.2036 13.8455 41.9715C11.9641 44.7395 10.404 47 10.3764 47C10.3489 47 9.98182 45.1455 9.56884 42.8757C9.14668 40.5968 8.78876 38.7238 8.77041 38.6961C8.75206 38.6684 6.90741 38.9914 4.66815 39.4066C2.42889 39.831 0.556713 40.1631 0.501649 40.1447C0.446585 40.1355 1.7773 38.1148 3.46592 35.6514C5.14537 33.1879 6.78811 30.7705 7.71502 29.3773L7.37546 28.8422C7.19191 28.5561 6.77893 27.7719 6.4669 27.1168C6.1457 26.4617 5.7419 25.4745 5.56753 24.9209C5.38398 24.3765 5.13619 23.4262 5.00771 22.808C4.87923 22.1806 4.73239 21.0734 4.66815 20.3353C4.58555 19.3019 4.58555 18.6837 4.66815 17.6135C4.73239 16.8477 4.87923 15.7497 4.99853 15.1684C5.11784 14.5872 5.38398 13.5907 5.59506 12.9541C5.80614 12.3174 6.21912 11.3025 6.51279 10.6936C6.80646 10.0846 7.33875 9.15273 7.68749 8.61759C8.0454 8.08245 8.51345 7.41814 8.7337 7.14134C8.95396 6.86455 9.46789 6.28327 9.87169 5.85885C10.2755 5.43443 10.9821 4.77012 11.4318 4.39183C11.8815 4.01355 12.6065 3.45995 13.0379 3.17393C13.4692 2.87868 14.2126 2.43581 14.6898 2.17746C15.167 1.92835 16.0388 1.52238 16.617 1.29172C17.1952 1.06105 18.067 0.775029 18.5443 0.645858C19.0215 0.525913 19.8107 0.350609 20.2879 0.26757C20.7652 0.175304 21.6095 0.0738123 22.1693 0.0369062C22.7291 0 23.6285 -0.00922654 24.1883 0.00922654ZM20.5174 3.04476C20.1136 3.1278 19.5538 3.24774 19.2784 3.33078C19.0031 3.40459 18.4249 3.58912 17.9936 3.74598C17.5623 3.90283 16.6996 4.29034 16.0664 4.61327C15.4331 4.94543 14.5429 5.48979 14.0841 5.83117C13.6252 6.17256 12.9736 6.69847 12.6249 7.00294C12.2853 7.30742 11.7163 7.89792 11.3492 8.32234C10.9913 8.74676 10.4131 9.51256 10.0736 10.0293C9.72485 10.5459 9.24763 11.3856 8.99984 11.893C8.76123 12.4005 8.44003 13.1663 8.28401 13.5999C8.13718 14.0336 7.90774 14.864 7.77926 15.4452C7.6416 16.0265 7.49476 17.0691 7.43052 17.7519C7.34793 18.693 7.34793 19.2927 7.43052 20.1969C7.48559 20.8612 7.61407 21.7931 7.71502 22.2729C7.82515 22.7526 8.0454 23.583 8.22895 24.1182C8.40332 24.6533 8.77041 25.5391 9.03655 26.1019C9.31187 26.6647 9.77074 27.4674 10.0552 27.9011C10.3489 28.3347 10.8537 29.0175 11.1932 29.4234C11.5328 29.8294 12.1752 30.4937 12.6157 30.8997C13.0562 31.3057 13.772 31.8962 14.2126 32.2191C14.6531 32.5328 15.5892 33.0864 16.2958 33.437C17.0025 33.7876 17.9569 34.2028 18.4066 34.3504C18.8563 34.498 19.6272 34.701 20.1044 34.8025C20.5816 34.9132 21.4535 35.0424 22.0316 35.107C22.6373 35.1623 23.5551 35.19 24.1883 35.1531C24.794 35.1254 25.6658 35.0332 26.1155 34.9594C26.5652 34.8763 27.382 34.6918 27.9326 34.5442C28.4741 34.3873 29.2725 34.1105 29.7222 33.9168C30.1627 33.7322 30.9153 33.3539 31.3925 33.0864C31.8697 32.8188 32.6406 32.3206 33.0903 31.9792C33.54 31.6378 34.2191 31.075 34.5954 30.7152C34.9625 30.3645 35.5315 29.7556 35.8435 29.3773C36.1555 28.999 36.6511 28.3347 36.9448 27.9011C37.2293 27.4674 37.6881 26.6647 37.9634 26.1019C38.2296 25.5391 38.5967 24.6533 38.7711 24.1182C38.9546 23.583 39.1749 22.7526 39.2758 22.2729C39.3768 21.7931 39.5052 20.8335 39.5603 20.1508C39.6429 19.2097 39.6521 18.6284 39.5695 17.7519C39.5144 17.1152 39.3768 16.1834 39.2758 15.6759C39.1749 15.1684 38.9454 14.3196 38.7711 13.7845C38.5875 13.2493 38.2479 12.4005 38.0002 11.893C37.7524 11.3856 37.2752 10.5459 36.9264 10.0293C36.5869 9.51256 36.0179 8.75599 35.6599 8.33157C35.302 7.91637 34.678 7.27974 34.2742 6.91991C33.8612 6.56007 33.2004 6.03416 32.8058 5.74814C32.402 5.46211 31.7504 5.03769 31.3466 4.81625C30.9428 4.59482 30.2637 4.26266 29.8323 4.07813C29.401 3.8936 28.7861 3.65371 28.4558 3.54299C28.1254 3.43227 27.4095 3.23852 26.8497 3.10934C25.9779 2.91559 25.5649 2.87868 23.8212 2.851C22.7108 2.83255 21.6829 2.84177 21.5269 2.86023C21.38 2.88791 20.9212 2.97095 20.5174 3.04476ZM9.0182 32.4221C8.75206 32.8004 8.07293 33.7968 7.49476 34.6364C6.92577 35.4761 6.47608 36.168 6.51279 36.1865C6.54032 36.1957 7.47641 36.0481 8.58686 35.8359C9.69732 35.6329 10.6885 35.4484 10.7894 35.4207C10.9638 35.3838 11.0005 35.5222 11.3768 37.5243C11.597 38.7053 11.7989 39.7203 11.8356 39.7848C11.8723 39.8679 12.3404 39.2497 13.0746 38.1702C13.7262 37.2199 14.3594 36.2972 14.4787 36.1404L14.6898 35.8359C13.3774 35.0609 12.6432 34.5718 12.2119 34.2489C11.7897 33.9352 11.129 33.3816 10.7435 33.031C10.3673 32.6712 9.92675 32.2375 9.77074 32.0622L9.48624 31.7301L9.0182 32.4221ZM34.8799 34.1659C34.3017 34.5995 33.4849 35.1623 33.0719 35.4022L32.3102 35.8359C32.6406 36.2972 33.2738 37.2199 33.9254 38.1702C34.6596 39.2497 35.1368 39.8679 35.1735 39.7848C35.2011 39.7203 35.403 38.7053 35.6141 37.5428C35.8251 36.3803 36.0087 35.4115 36.0179 35.4022C36.027 35.393 36.9998 35.5683 38.1837 35.799C39.3768 36.0204 40.3863 36.1957 40.4413 36.1773C40.4964 36.168 39.8999 35.2177 39.1106 34.0644C38.3305 32.9111 37.6422 31.9331 37.5872 31.8777C37.5229 31.8223 37.2384 32.0438 36.7153 32.5789C36.2932 33.0033 35.4672 33.723 34.8799 34.1659Z" fill="#EE1C25"/>
<path d="M20.1497 23.1955L25.7479 17.5673C28.8223 14.4672 31.3644 11.9391 31.3919 11.9391C31.4194 11.9391 31.8508 12.3543 33.2733 13.7844L20.1038 27.0245L13.7256 20.612L15.6528 18.6745L20.1497 23.1955Z" fill="#EE1C25"/>
</svg>
