<svg width="48" height="47" viewBox="0 0 48 47" fill="none" xmlns="http://www.w3.org/2000/svg">
<path d="M16.0593 2.81994C17.1037 2.5275 18.6077 2.19328 19.4015 2.08883C20.1952 1.98439 21.8037 1.9635 22.9525 2.00528C24.1014 2.06795 25.6472 2.23506 26.3991 2.40216C27.1511 2.54838 28.5507 2.98704 29.5324 3.34215C30.5142 3.69726 31.8928 4.30303 32.6031 4.69991C33.3342 5.09679 34.0026 5.61901 34.1279 5.84878C34.2533 6.07856 34.3368 6.45455 34.3368 6.68433C34.3368 6.9141 34.1488 7.2901 33.919 7.51987C33.6893 7.74965 33.2506 7.93764 32.9373 7.93764C32.6031 7.93764 31.7884 7.60343 31.0991 7.22743C30.4098 6.83055 28.9893 6.22478 27.9658 5.86967C26.9214 5.53545 25.2921 5.13857 24.3103 5.01324C23.2659 4.86702 21.8037 4.82524 20.7592 4.9088C19.7775 4.99235 18.2735 5.22212 17.4171 5.4519C16.5606 5.66079 15.0149 6.26655 13.9704 6.76788C12.926 7.26921 11.5265 8.08386 10.8371 8.60608C10.1478 9.12829 9.0825 10.1101 8.45584 10.7785C7.82918 11.4678 6.93097 12.6167 6.42965 13.3687C5.94921 14.1207 5.30166 15.2904 4.98833 15.9798C4.69589 16.6691 4.23634 17.9851 3.98568 18.9042C3.60969 20.2828 3.52613 21.1183 3.54702 23.6041C3.56791 26.2778 3.63058 26.8418 4.1319 28.5129C4.44523 29.5365 5.09278 31.1449 5.57321 32.064C6.05365 32.9831 7.01453 34.4244 7.70385 35.2808C8.39318 36.1373 9.6256 37.3488 10.4194 37.9754C11.234 38.6021 12.4456 39.4168 13.1349 39.7928C13.8242 40.1896 15.2864 40.7954 16.3726 41.1714C18.1482 41.7772 18.6704 41.8607 21.3859 41.9443C23.9761 42.0069 24.6863 41.9652 26.2947 41.5892C27.3182 41.3385 29.0311 40.7327 30.0547 40.2314C31.0782 39.7301 32.6657 38.7483 33.5639 38.0381C34.4413 37.3488 35.6319 36.2208 36.175 35.5733C36.7181 34.9048 37.5537 33.6933 38.0341 32.8995C38.5145 32.1058 39.1412 30.8316 39.4336 30.0796C39.7052 29.3276 40.0812 27.9907 40.2692 27.1134C40.4572 26.1943 40.6034 24.4814 40.6034 23.1863C40.6034 21.0766 40.6452 20.8468 41.0838 20.4708C41.3345 20.241 41.7523 20.053 42.0238 20.053C42.2745 20.053 42.734 20.3037 43.6114 21.2019L43.486 24.1263C43.3816 26.3614 43.2145 27.5312 42.7967 29.0351C42.5043 30.1213 41.9403 31.688 41.5643 32.4817C41.2092 33.2755 40.3945 34.6959 39.7678 35.615C39.1412 36.5132 37.9088 37.9754 37.0523 38.811C36.1959 39.6674 34.8799 40.7745 34.1279 41.255C33.3759 41.7563 32.06 42.4874 31.2035 42.9052C30.3471 43.302 28.7804 43.8869 27.7569 44.2003C26.2112 44.6598 25.3338 44.7642 22.8481 44.8478C20.3623 44.9314 19.4641 44.8687 17.8348 44.5345C16.7486 44.3047 15.0984 43.8243 14.1793 43.4692C13.2602 43.114 11.7145 42.3412 10.7327 41.7354C9.75093 41.1296 8.22607 39.939 7.30697 39.0617C6.40876 38.2052 5.21811 36.8892 4.675 36.1373C4.1319 35.3853 3.29636 34.0275 2.83681 33.1084C2.37726 32.1893 1.77149 30.6853 1.47905 29.7662C1.18661 28.8471 0.852391 27.1969 0.706171 26.1107C0.539062 24.9201 0.497285 23.3325 0.58084 22.1419C0.643505 21.0557 0.915057 19.3637 1.16572 18.3819C1.3955 17.4002 1.89682 15.8962 2.25193 15.0398C2.60703 14.1833 3.46347 12.6376 4.15279 11.5931C4.84211 10.5696 6.01188 9.1074 6.76386 8.35541C7.51585 7.60343 8.72739 6.559 9.47938 6.01589C10.2314 5.49368 11.5891 4.67902 12.5082 4.21947C13.4273 3.75992 15.0149 3.13326 16.0593 2.81994Z" fill="#EE1C25"/>
<path d="M24.4147 24.8574L34.859 14.4131C44.3425 4.95057 45.366 3.96881 45.9927 3.96881C46.3895 3.96881 46.8282 4.13592 47.0789 4.38658C47.3086 4.61636 47.4966 5.05502 47.4966 5.36835C47.4966 5.84878 45.6375 7.79142 36.2586 17.1704C27.4018 26.0481 24.9369 28.4085 24.5192 28.4085C24.1223 28.4085 22.8481 27.2596 19.1299 23.5414C14.9313 19.3428 14.2838 18.6117 14.2838 18.0686C14.2838 17.7135 14.4509 17.2748 14.6598 17.066C14.8478 16.8571 15.2864 16.69 15.6415 16.7109C16.1637 16.7109 16.8739 17.3166 24.4147 24.8574Z" fill="#EE1C25"/>
<path d="M0.708886 20.5753C0.625332 21.2855 0.541777 17.0869 0.520889 10.9247L0.5 0H47.4993V4.80438L47.0816 4.38661C46.8309 4.13594 46.3923 3.96883 45.9954 3.96883C45.4105 3.96883 44.2825 5.01326 24.4174 24.8574L20.3442 20.7842C16.8349 17.2749 16.1873 16.7109 15.6442 16.7109C15.2891 16.7109 14.8505 16.878 14.6416 17.0869C14.4327 17.2749 14.2656 17.7135 14.2865 18.0686C14.2865 18.6117 14.9758 19.3846 19.1326 23.5415C22.8508 27.2596 24.125 28.4085 24.5219 28.4085C24.9397 28.4085 27.4045 26.0481 47.4993 5.95325V46.9993H0.5L0.520889 36.0955C0.541777 26.5912 0.583554 25.3796 0.79244 26.8418C0.938661 27.7609 1.27288 29.1814 1.54443 29.9751C1.79509 30.7689 2.40086 32.1893 2.86041 33.1084C3.29907 34.0275 4.13462 35.3853 4.67772 36.1373C5.22082 36.8893 6.41147 38.2052 7.30968 39.0617C8.22878 39.939 9.75365 41.1297 10.7354 41.7354C11.7172 42.3412 13.2629 43.1141 14.182 43.4692C15.1011 43.8243 16.7513 44.3047 17.8375 44.5345C19.4668 44.8687 20.3651 44.9314 22.8508 44.8478C25.3365 44.7643 26.2139 44.6598 27.7596 44.2003C28.7832 43.8869 30.3498 43.3021 31.2062 42.9052C32.0627 42.4874 33.3787 41.7563 34.1306 41.255C34.8826 40.7745 36.1986 39.6674 37.055 38.811C37.9115 37.9755 39.1439 36.5133 39.7706 35.6151C40.3972 34.696 41.2119 33.2755 41.567 32.4818C41.943 31.688 42.507 30.1214 42.7994 29.0352C43.2172 27.5312 43.3843 26.3614 43.6141 21.2019L43.0501 20.617C42.7367 20.3037 42.2772 20.0531 42.0056 20.0531C41.755 20.0531 41.3372 20.2411 41.0657 20.4708C40.6479 20.8468 40.6061 21.0766 40.6061 23.1863C40.6061 24.4814 40.4599 26.1943 40.2719 27.0925C40.0839 27.9907 39.7079 29.3276 39.4363 30.0796C39.1439 30.8316 38.5173 32.1058 38.0368 32.8995C37.5564 33.6933 36.7208 34.9048 36.1777 35.5524C35.6346 36.2208 34.444 37.3488 33.5667 38.0381C32.6684 38.7484 31.0809 39.7301 30.0574 40.2314C29.0338 40.7328 27.321 41.3385 26.2974 41.5892C24.689 41.9652 23.9788 42.007 21.3886 41.9443C18.6731 41.8608 18.1509 41.7772 16.3753 41.1714C15.2891 40.7954 13.8269 40.1897 13.1376 39.7928C12.4483 39.4168 11.2367 38.6021 10.4221 37.9755C9.60743 37.3488 8.39589 36.1373 7.70657 35.2808C7.01724 34.4244 6.05637 32.9831 5.57593 32.064C5.09549 31.1449 4.44794 29.5365 4.13462 28.5129C3.63329 26.8418 3.57062 26.2779 3.54974 23.6041C3.52885 21.1184 3.6124 20.2828 3.9884 18.9042C4.23906 17.9851 4.69861 16.6691 4.99105 15.9798C5.30438 15.2905 5.95192 14.1207 6.43236 13.3687C6.93369 12.6167 7.8319 11.4678 8.45856 10.7785C9.08521 10.1101 10.1505 9.12832 10.8399 8.6061C11.5292 8.08389 12.9287 7.26923 13.9731 6.76791C15.0176 6.26658 16.5633 5.66081 17.4198 5.45192C18.2762 5.22215 19.7802 4.99237 20.7619 4.90882C21.8064 4.82527 23.2686 4.86704 24.313 5.01326C25.2948 5.1386 26.9241 5.53548 27.9685 5.8697C28.992 6.2248 30.4125 6.83057 31.1018 7.22745C31.7911 7.60345 32.6058 7.93767 32.9191 7.93767C33.2533 7.93767 33.692 7.74967 33.9218 7.5199C34.1515 7.29012 34.3395 6.91413 34.3395 6.68435C34.3395 6.45458 34.256 6.07858 34.1306 5.84881C34.0053 5.61903 33.3369 5.09682 32.6267 4.69993C31.8956 4.30305 30.5169 3.69728 29.5352 3.34218C28.5534 2.98707 27.1539 2.5693 26.4019 2.40219C25.6499 2.25597 24.2921 2.06797 23.373 1.98442C22.4539 1.92175 20.8664 1.94264 19.822 2.06797C18.7775 2.1933 17.1064 2.52752 16.062 2.81996C15.0176 3.13329 13.43 3.75995 12.5109 4.2195C11.5918 4.67905 10.2341 5.4937 9.4821 6.01592C8.73011 6.55902 7.51857 7.60345 6.76658 8.35544C6.01459 9.10743 4.84483 10.5696 4.1555 11.5932C3.46618 12.6376 2.63064 14.1834 2.25464 15.0398C1.89954 15.8962 1.43999 17.2122 1.25199 17.9642C1.0431 18.7162 0.79244 19.8859 0.708886 20.5753Z" fill="white"/>
</svg>
