<svg width="48" height="47" viewBox="0 0 48 47" fill="none" xmlns="http://www.w3.org/2000/svg">
<path fill-rule="evenodd" clip-rule="evenodd" d="M17.7656 0.0103876C17.904 0.01961 17.9777 0.157947 18.07 0.58218C18.1437 0.886522 18.3374 1.42142 18.5126 1.7811C18.6879 2.14078 19.0199 2.66646 19.2504 2.96158C19.481 3.24747 19.9052 3.67171 20.1911 3.90227C20.4862 4.13283 20.975 4.44639 21.2794 4.59395C21.5837 4.75073 22.1832 4.96285 22.6166 5.0643C23.253 5.2303 23.5665 5.25797 24.2767 5.21186C24.8392 5.18419 25.4203 5.08274 25.8906 4.92596C26.2964 4.79685 26.8866 4.52939 27.2002 4.31728C27.523 4.11438 27.9749 3.77315 28.2054 3.55181C28.4452 3.3397 28.8049 2.91546 29.0078 2.61112C29.2107 2.30678 29.4874 1.82721 29.6073 1.55054C29.7271 1.27386 29.8747 0.812742 29.9393 0.536068C30.0038 0.250172 30.1145 0.01961 30.1883 0.00116511C30.2621 -0.0172798 30.963 0.185614 31.7469 0.443843C32.5953 0.72974 33.7758 1.21853 34.6519 1.64276C35.4635 2.04855 36.1921 2.41745 36.2659 2.46356C36.3858 2.53734 36.3765 2.58345 36.2013 2.80479C36.0906 2.95235 35.8785 3.3397 35.7217 3.67171C35.565 4.00371 35.3805 4.52017 35.2975 4.82451C35.2237 5.12885 35.1592 5.7652 35.1592 6.25399C35.1592 6.80734 35.2237 7.36991 35.3252 7.7757C35.4174 8.12615 35.6387 8.71639 35.8048 9.06685C36.0445 9.55564 36.3304 9.91531 36.9576 10.5424C37.5939 11.188 37.9444 11.4462 38.4793 11.7045C38.8574 11.8889 39.4568 12.1103 39.8165 12.2025C40.3053 12.3224 40.7111 12.35 41.5227 12.3132C42.3804 12.2855 42.7124 12.2209 43.2749 12.018C43.6531 11.8797 44.1972 11.6215 44.4739 11.4462C44.8704 11.1972 44.9995 11.1511 45.0549 11.2526C45.0918 11.3171 45.4514 12.0365 45.8572 12.8481C46.2815 13.7242 46.7703 14.9047 47.0562 15.7531C47.3144 16.537 47.5173 17.2379 47.4988 17.3117C47.4804 17.3855 47.2498 17.4962 46.9639 17.5607C46.6873 17.6253 46.2077 17.7821 45.9033 17.9204C45.599 18.0495 45.101 18.3446 44.7967 18.5568C44.4923 18.7781 44.0865 19.1286 43.8929 19.3407C43.7084 19.5436 43.3856 19.977 43.1827 20.2906C42.9706 20.6134 42.6939 21.2036 42.5648 21.6094C42.3619 22.2273 42.3158 22.5224 42.3158 23.4539C42.3066 24.4407 42.3343 24.6436 42.5833 25.3906C42.7308 25.8425 43.0167 26.4604 43.2012 26.7463C43.3948 27.0414 43.7268 27.4749 43.939 27.7054C44.1603 27.9452 44.5845 28.3049 44.8889 28.5078C45.1932 28.7107 45.6728 28.9874 45.9495 29.1073C46.2261 29.2271 46.6873 29.3747 46.9639 29.4393C47.2498 29.5038 47.4804 29.6145 47.4988 29.6883C47.5173 29.7621 47.3144 30.463 47.0562 31.2469C46.7703 32.0953 46.2815 33.2758 45.8572 34.1519C45.4514 34.9635 45.0826 35.6921 45.0364 35.7659C44.9627 35.8858 44.9165 35.8765 44.6952 35.7013C44.5476 35.5906 44.1603 35.3785 43.8283 35.2217C43.4963 35.065 42.9798 34.8805 42.6755 34.7975C42.3619 34.7237 41.744 34.6592 41.246 34.6592C40.7664 34.6592 40.1024 34.7237 39.7704 34.8067C39.4384 34.8805 38.8574 35.1019 38.4793 35.2863C37.9444 35.5445 37.5939 35.812 36.9576 36.4576C36.3212 37.0939 36.0445 37.4536 35.7863 37.9793C35.6019 38.3574 35.3805 38.9384 35.3067 39.2704C35.2237 39.6024 35.1592 40.2664 35.1592 40.746C35.1592 41.244 35.2237 41.8619 35.2975 42.1755C35.3805 42.4798 35.565 42.9963 35.7217 43.3283C35.8785 43.6603 36.0906 44.0476 36.2013 44.1952C36.3765 44.4165 36.3858 44.4627 36.2659 44.5364C36.1921 44.5826 35.4635 44.9514 34.6519 45.3572C33.7758 45.7815 32.5953 46.2703 31.7469 46.5562C30.963 46.8144 30.2621 47.0173 30.1883 46.9988C30.1145 46.9804 30.0038 46.7406 29.93 46.4178C29.8563 46.1135 29.6626 45.5786 29.4874 45.2189C29.3214 44.8592 28.9709 44.3243 28.7311 44.02C28.4821 43.7156 27.9933 43.2453 27.6429 42.9778C27.2832 42.7104 26.6837 42.3784 26.3056 42.2308C25.9275 42.0833 25.328 41.908 24.9684 41.8435C24.5995 41.7789 24 41.7605 23.585 41.7881C23.1515 41.8158 22.5244 41.9449 22.0633 42.1017C21.6298 42.24 21.0396 42.5167 20.7445 42.7012C20.4586 42.8948 20.0436 43.2084 19.8407 43.4021C19.6286 43.5865 19.2781 43.9923 19.0568 44.2967C18.8446 44.601 18.5495 45.099 18.4204 45.4033C18.2821 45.7077 18.1253 46.1873 18.0607 46.4639C17.9962 46.7498 17.8855 46.9804 17.8117 46.9988C17.7379 47.0173 17.037 46.8144 16.2531 46.5562C15.3862 46.2703 14.2426 45.7999 13.3481 45.3572C12.5365 44.9514 11.8079 44.5826 11.7341 44.5364C11.6142 44.4627 11.6235 44.4165 11.7987 44.1952C11.9094 44.0476 12.1215 43.6603 12.2782 43.3283C12.435 42.9963 12.6195 42.4798 12.7025 42.1755C12.7763 41.8619 12.8408 41.2348 12.8408 40.746C12.8408 40.2664 12.7763 39.6024 12.6933 39.2704C12.6103 38.9384 12.3981 38.3574 12.2137 37.9885C12.0016 37.555 11.6419 37.057 11.2638 36.6512C10.9318 36.2916 10.4153 35.8304 10.111 35.6275C9.81585 35.4246 9.23484 35.1387 8.82905 34.9912C8.22959 34.7791 7.89758 34.7145 7.03067 34.6776C6.14531 34.6407 5.85019 34.6684 5.25073 34.8344C4.86339 34.9359 4.31926 35.1387 4.05181 35.2679C3.79358 35.4062 3.46158 35.5906 3.31402 35.6829C3.17568 35.7843 3.04656 35.8489 3.02812 35.8397C3.00968 35.8212 2.74222 35.3324 2.42866 34.7514C2.12432 34.1704 1.68164 33.2113 1.45108 32.6302C1.22052 32.0492 0.897731 31.1546 0.750172 30.6474C0.59339 30.1402 0.48272 29.6883 0.510388 29.6329C0.528832 29.5776 0.722504 29.513 0.934621 29.4762C1.13752 29.43 1.57097 29.3009 1.88453 29.1718C2.20732 29.0427 2.71456 28.7752 3.0189 28.5724C3.32324 28.3787 3.76592 28.019 3.99648 27.77C4.22704 27.5302 4.59594 27.0599 4.80806 26.7279C5.02017 26.3959 5.30607 25.7964 5.43518 25.3906C5.6473 24.7543 5.68419 24.4868 5.68419 23.5C5.69341 22.4671 5.66574 22.2734 5.43518 21.6094C5.28762 21.2036 5.02939 20.641 4.86339 20.3644C4.69739 20.0877 4.35615 19.6358 4.11637 19.3591C3.86736 19.0824 3.41546 18.6951 3.11112 18.4922C2.80678 18.2801 2.32721 18.0126 2.05054 17.8927C1.77386 17.7729 1.31274 17.6253 1.03607 17.5607C0.750172 17.4962 0.51961 17.3855 0.501165 17.3117C0.48272 17.2379 0.685614 16.537 0.943843 15.7531C1.22974 14.9047 1.71853 13.7242 2.14276 12.8481C2.54855 12.0365 2.90823 11.3171 2.94512 11.2526C3.00045 11.1696 3.15723 11.2157 3.57225 11.4647C3.87659 11.6491 4.35615 11.8797 4.63283 11.9811C4.9095 12.0826 5.34296 12.2117 5.60119 12.2578C5.85019 12.3039 6.41276 12.3408 6.84622 12.3408C7.27968 12.3408 7.89758 12.2763 8.22959 12.1933C8.5616 12.1103 9.14261 11.8981 9.52073 11.7137C10.0649 11.4555 10.3969 11.1972 11.0424 10.5424C11.688 9.89687 11.9462 9.55564 12.2137 9.02073C12.3889 8.64261 12.6103 8.0616 12.6933 7.72959C12.7763 7.39758 12.8408 6.74278 12.8408 6.25399C12.8408 5.7652 12.7763 5.13808 12.7025 4.82451C12.6195 4.52017 12.435 4.00371 12.2782 3.67171C12.1215 3.3397 11.9094 2.95235 11.7987 2.80479C11.6235 2.58345 11.6142 2.53734 11.7341 2.46356C11.8079 2.41745 12.5365 2.04855 13.3481 1.64276C14.1781 1.23698 15.4323 0.711295 16.207 0.453066C16.9633 0.194837 17.6734 -0.00805736 17.7656 0.0103876ZM21.4177 12.5345C20.9843 12.6359 20.3664 12.8204 20.0343 12.9403C19.7023 13.0694 19.1674 13.3092 18.8354 13.4752C18.5034 13.6412 18.0054 13.9271 17.7287 14.1115C17.4521 14.296 16.9633 14.6741 16.6497 14.9416C16.3454 15.209 15.8289 15.7162 15.5153 16.0759C15.2018 16.4264 14.796 16.9521 14.6115 17.2287C14.4271 17.5054 14.1412 18.0034 13.9752 18.3354C13.8092 18.6674 13.5694 19.2023 13.4403 19.5343C13.3204 19.8664 13.1175 20.5119 13.0068 20.9638C12.8316 21.674 12.7947 22.0336 12.7947 23.5C12.7947 24.9664 12.8316 25.326 13.0068 26.0362C13.1175 26.4881 13.2927 27.0691 13.3849 27.3273C13.4864 27.5763 13.6708 28.0375 13.8092 28.3418C13.9475 28.6461 14.3164 29.2917 14.6392 29.7713C14.962 30.2508 15.5891 31.0163 16.0318 31.4682C16.4837 31.9109 17.2492 32.538 17.7287 32.8608C18.2083 33.1836 18.8539 33.5525 19.1582 33.6908C19.4625 33.8292 19.9237 34.0136 20.1727 34.1058C20.4309 34.2073 20.9843 34.3733 21.4177 34.4747C21.9249 34.6038 22.6535 34.6868 23.4928 34.7237C24.3136 34.7606 25.0698 34.733 25.5678 34.6592C26.0013 34.6038 26.7022 34.4471 27.1356 34.318C27.5691 34.1981 28.2516 33.9491 28.6573 33.7646C29.0631 33.5802 29.7271 33.2113 30.1329 32.953C30.5387 32.6856 31.1197 32.2429 31.4241 31.9754C31.7284 31.6988 32.1988 31.2284 32.4754 30.9241C32.7429 30.6197 33.1764 30.0387 33.4438 29.6329C33.702 29.2271 34.0709 28.5631 34.2554 28.1573C34.4491 27.7516 34.6981 27.0691 34.8272 26.6356C34.9471 26.2022 35.1038 25.5013 35.1592 25.0678C35.233 24.5698 35.2606 23.8136 35.2237 22.9928C35.1868 22.1535 35.1038 21.4249 34.9747 20.9177C34.8733 20.4843 34.6796 19.8664 34.5597 19.5343C34.4306 19.2023 34.1908 18.6674 34.0248 18.3354C33.8588 18.0034 33.5729 17.5054 33.3885 17.2287C33.204 16.9521 32.8075 16.4448 32.5123 16.1128C32.2172 15.7808 31.7284 15.2828 31.4241 15.0153C31.1197 14.7387 30.5387 14.3052 30.1329 14.0378C29.7271 13.7795 29.1461 13.4475 28.8418 13.3092C28.5375 13.1708 28.0856 12.9864 27.8273 12.8849C27.5783 12.7927 27.0157 12.6267 26.5823 12.516C25.9828 12.3685 25.4479 12.3132 24.2767 12.2947C23.4374 12.2763 22.6351 12.2855 22.4783 12.3039C22.3215 12.3316 21.8512 12.433 21.4177 12.5345Z" fill="#EE1C25"/>
</svg>
