<svg width="48" height="47" viewBox="0 0 48 47" fill="none" xmlns="http://www.w3.org/2000/svg">
<path d="M16.686 7.1022L27.7571 4.40753C33.8567 2.92442 39.0789 1.69197 39.3922 1.69197C39.7265 1.67109 40.2278 1.79642 40.5411 1.96353C40.8753 2.10975 41.2305 2.46486 41.3558 2.73642C41.502 3.00797 41.7945 4.11509 42.0451 5.15953C42.3585 6.57998 42.5882 7.12309 42.8389 7.20664C43.0478 7.26931 43.6327 7.54086 44.1549 7.81242C44.8233 8.16753 45.2411 8.56442 45.5753 9.21197C46.0349 10.1102 46.0349 10.2773 46.0349 23.3955H46.4945C46.766 23.3955 47.1002 23.5 47.2465 23.6462C47.4345 23.8551 47.4971 25.2129 47.4971 29.1818C47.4971 33.7146 47.4553 34.5084 47.1629 34.78C46.9958 34.9471 46.6616 35.0933 46.4318 35.0933C46.0558 35.0933 46.0349 35.2813 46.0349 38.6862C46.0349 41.7569 45.9722 42.4253 45.638 43.1355C45.4291 43.5951 45.0322 44.18 44.7607 44.4306C44.4891 44.6813 44.0087 44.9738 43.6953 45.0991C43.2985 45.2662 36.802 45.3289 23.2242 45.3289C4.6749 45.3289 3.27534 45.308 2.6069 44.9529C2.21001 44.7649 1.60423 44.2426 0.601562 42.9893V9.71331L1.06112 8.9822C1.31178 8.58531 1.91756 8.02131 3.31712 7.20664L16.686 7.1022Z" fill="#EE1C25"/>
<path fill-rule="evenodd" clip-rule="evenodd" d="M0.5 0H47.5V11.9693C47.5 21.62 47.4582 23.876 47.2493 23.6462C47.1031 23.5 46.7689 23.3956 46.0378 23.3956V16.7738C46.0378 10.2773 46.0378 10.1102 45.5782 9.212C45.244 8.56444 44.8262 8.16756 44.1578 7.81244C43.6356 7.54089 43.0507 7.26933 42.8418 7.20667C42.5911 7.12311 42.3613 6.58 42.048 5.18044C41.7973 4.11511 41.5049 3.008 41.3587 2.73644C41.2333 2.46489 40.8782 2.10978 40.544 1.96356C40.2307 1.79644 39.7711 1.67111 39.4996 1.67111C39.2489 1.67111 34.0058 2.90356 16.6889 7.10222L3.32 7.20667L2.42178 7.72889C1.92044 8.02133 1.35644 8.48089 1.18933 8.77333C1.00133 9.06578 0.771556 9.52533 0.688 9.81778C0.604444 10.1102 0.520889 8.02133 0.520889 5.18044L0.5 0ZM47.4373 34.4667C47.4791 34.4667 47.5 37.2867 47.5 47H0.5L0.520889 44.6396C0.520889 43.3444 0.604444 42.5089 0.667111 42.7596C0.750667 43.0102 1.08489 43.5742 1.44 43.992C1.77422 44.4307 2.35911 44.8902 2.73511 45.0364C3.27822 45.2662 7.37244 45.3289 23.2689 45.3289C36.8258 45.3289 43.3013 45.2453 43.6773 45.0991C43.9907 44.9738 44.492 44.6604 44.7636 44.4098C45.0351 44.1591 45.432 43.5742 45.6409 43.1356C45.9751 42.4253 46.0169 41.736 46.0378 38.6862C46.0378 35.3231 46.0587 35.0933 46.4138 35.0933C46.6436 35.0933 46.936 34.9471 47.1031 34.78C47.2702 34.6129 47.4164 34.4667 47.4373 34.4667ZM39.3951 3.15422C39.8129 3.13333 40.0218 3.25867 40.168 3.59289C40.2516 3.84356 40.6693 5.41022 41.0453 7.03956C41.7347 9.90133 41.7347 10.0058 41.3587 10.2773C41.1498 10.4236 41.0244 10.716 41.0453 10.9458C41.108 11.2382 41.4004 11.4053 42.2778 11.5724C42.9044 11.6978 43.5311 11.8649 43.6773 11.9484C43.8236 12.032 44.0951 12.3871 44.2622 12.7213C44.4293 13.0764 44.5338 13.4316 44.4711 13.5151C44.4084 13.5987 44.116 13.5569 43.8444 13.4107C43.4267 13.2018 38.9773 13.1391 23.6867 13.1391C6.704 13.1391 3.94667 13.0973 3.32 12.8258C2.90222 12.6587 2.44267 12.2409 2.27556 11.8858C2.10844 11.5516 1.96222 11.0502 1.96222 10.7996C1.96222 10.5489 2.15022 10.0267 2.38 9.65067C2.65156 9.19111 3.04844 8.89867 3.57067 8.77333C4.00933 8.648 5.36711 8.56444 6.59956 8.56444C7.95733 8.56444 8.85556 8.62711 8.85556 8.75244C8.85556 8.87778 8.584 9.024 8.27067 9.10756C7.95733 9.19111 6.76667 9.48356 5.61778 9.79689C3.67511 10.2982 3.52889 10.3609 3.52889 11.3636H39.2489V10.3191L25.3996 10.2773C16.5009 10.2356 11.592 10.152 11.6129 10.0267C11.6547 9.90133 11.9053 9.75511 12.1978 9.67156C12.4902 9.588 18.5898 8.084 25.7756 6.35022C32.9613 4.59556 39.0818 3.15422 39.3951 3.15422ZM43.0298 8.75244C43.0716 8.75244 43.3013 8.85689 43.5311 8.96133C43.7609 9.08667 44.0951 9.46267 44.2622 9.79689C44.4293 10.152 44.5756 10.4862 44.5756 10.528C44.5756 10.5907 44.4502 10.6533 44.304 10.6533C44.1578 10.6533 43.8862 10.528 43.6773 10.3818C43.4893 10.2356 43.2387 9.81778 43.1342 9.44178C43.0298 9.06578 42.988 8.75244 43.0298 8.75244ZM1.98311 13.7658L2.65156 14.1418C3.27822 14.476 4.59422 14.5178 23.06 14.5596C33.9222 14.5804 43.0089 14.664 43.2596 14.7058C43.5311 14.7684 43.928 15.1236 44.1578 15.4996C44.5338 16.1053 44.5756 16.544 44.5756 23.3956L38.9773 23.3747C34.7787 23.3747 33.3164 23.4582 33.1284 23.6462C32.9404 23.8342 32.8778 25.3382 32.8778 29.2862C32.8778 34.4458 32.8987 34.6756 33.2956 34.8844C33.5462 34.9889 35.9484 35.0724 44.5756 35.0724V42.3836L43.1551 43.8667L3.42444 43.8458L1.96222 42.3836L1.98311 13.7658ZM34.34 24.8578H46.0378V33.6311H34.34V24.8578Z" fill="white"/>
<path d="M37.5158 27.4271C37.7873 27.3018 38.1216 27.1556 38.2887 27.0929C38.4558 27.0511 38.7691 27.0929 38.978 27.1974C39.2078 27.3018 39.3749 27.5734 39.3749 27.7822C39.354 28.0538 39.1451 28.2836 38.7691 28.4089C38.4558 28.5134 38.1425 28.7431 38.038 28.9311C37.9545 29.0982 37.9336 29.3907 37.9962 29.5578C38.0589 29.7249 38.3305 29.8711 38.6229 29.8711C39.0198 29.8711 39.1869 29.7249 39.354 29.2445C39.5211 28.7222 39.6673 28.6178 40.1269 28.6805C40.6282 28.7222 40.7118 28.8267 40.7536 29.4116C40.7953 29.9129 40.67 30.2262 40.2105 30.7067C39.73 31.208 39.4167 31.3334 38.7482 31.3334C38.1425 31.3334 37.7038 31.1871 37.2651 30.8111C36.91 30.5187 36.5967 30.0174 36.534 29.6622C36.4713 29.328 36.5758 28.7222 36.7429 28.3671C36.91 27.9911 37.2651 27.5734 37.5158 27.4271Z" fill="#EE1C25"/>
</svg>
